<?xml version="1.0" encoding="UTF-8" standalone="no"?>
<!-- Created with Inkscape (http://www.inkscape.org/) -->

<svg
   xmlns:dc="http://purl.org/dc/elements/1.1/"
   xmlns:cc="http://creativecommons.org/ns#"
   xmlns:rdf="http://www.w3.org/1999/02/22-rdf-syntax-ns#"
   xmlns:svg="http://www.w3.org/2000/svg"
   xmlns="http://www.w3.org/2000/svg"
   xmlns:sodipodi="http://sodipodi.sourceforge.net/DTD/sodipodi-0.dtd"
   xmlns:inkscape="http://www.inkscape.org/namespaces/inkscape"
   version="1.1"
   id="svg10"
   width="300"
   height="300"
   viewBox="0 0 300 300"
   sodipodi:docname="oceanus-logo.svg"
   inkscape:version="0.92.4 (5da689c313, 2019-01-14)"
   inkscape:export-filename="G:\OCEANUSSYP\LOGO OCEANUS\LOGO-OCEANUS----.png"
   inkscape:export-xdpi="96"
   inkscape:export-ydpi="96">
  <title
     id="title5001">Oceanus Supervisión y Proyectos S.A. de C.V. - Logotipo</title>
  <metadata
     id="metadata16">
    <rdf:RDF>
      <cc:Work
         rdf:about="">
        <dc:format>image/svg+xml</dc:format>
        <dc:type
           rdf:resource="http://purl.org/dc/dcmitype/StillImage" />
        <dc:title>Oceanus Supervisión y Proyectos S.A. de C.V. - Logotipo</dc:title>
      </cc:Work>
    </rdf:RDF>
  </metadata>
  <defs
     id="defs14">
    <inkscape:path-effect
       effect="bspline"
       id="path-effect4895"
       is_visible="true"
       weight="33.333333"
       steps="2"
       helper_size="0"
       apply_no_weight="true"
       apply_with_weight="true"
       only_selected="false" />
    <inkscape:path-effect
       effect="spiro"
       id="path-effect4891"
       is_visible="true" />
    <inkscape:path-effect
       effect="spiro"
       id="path-effect4887"
       is_visible="true" />
    <inkscape:path-effect
       effect="spiro"
       id="path-effect4883"
       is_visible="true" />
    <inkscape:path-effect
       effect="spiro"
       id="path-effect4877"
       is_visible="true" />
    <inkscape:path-effect
       effect="spiro"
       id="path-effect4873"
       is_visible="true" />
    <inkscape:path-effect
       effect="spiro"
       id="path-effect4865"
       is_visible="true" />
    <inkscape:path-effect
       effect="spiro"
       id="path-effect4726"
       is_visible="true" />
    <inkscape:path-effect
       effect="spiro"
       id="path-effect4666"
       is_visible="true" />
    <inkscape:path-effect
       effect="spiro"
       id="path-effect4661"
       is_visible="true" />
    <inkscape:path-effect
       effect="spiro"
       id="path-effect4657"
       is_visible="true" />
    <inkscape:path-effect
       effect="spiro"
       id="path-effect4652"
       is_visible="true" />
    <inkscape:path-effect
       effect="spiro"
       id="path-effect4647"
       is_visible="true" />
    <inkscape:path-effect
       effect="spiro"
       id="path-effect4642"
       is_visible="true" />
    <inkscape:path-effect
       effect="spiro"
       id="path-effect4606"
       is_visible="true" />
    <inkscape:path-effect
       effect="spiro"
       id="path-effect4602"
       is_visible="true" />
    <inkscape:path-effect
       effect="spiro"
       id="path-effect4593"
       is_visible="true" />
    <inkscape:path-effect
       effect="spiro"
       id="path-effect4579"
       is_visible="true" />
    <inkscape:path-effect
       effect="spiro"
       id="path-effect4575"
       is_visible="true" />
    <inkscape:path-effect
       effect="spiro"
       id="path-effect4570"
       is_visible="true" />
    <inkscape:path-effect
       effect="spiro"
       id="path-effect4566"
       is_visible="true" />
    <inkscape:path-effect
       effect="spiro"
       id="path-effect4562"
       is_visible="true" />
    <inkscape:path-effect
       effect="spiro"
       id="path-effect4557"
       is_visible="true" />
    <pattern
       y="0"
       x="0"
       height="6"
       width="6"
       patternUnits="userSpaceOnUse"
       id="EMFhbasepattern" />
  </defs>
  <sodipodi:namedview
     pagecolor="#ffffff"
     bordercolor="#666666"
     borderopacity="1"
     objecttolerance="10000"
     gridtolerance="10000"
     guidetolerance="10000"
     inkscape:pageopacity="0"
     inkscape:pageshadow="2"
     inkscape:window-width="1366"
     inkscape:window-height="705"
     id="namedview12"
     showgrid="true"
     inkscape:zoom="64.586667"
     inkscape:cx="123.33793"
     inkscape:cy="148.65576"
     inkscape:window-x="-8"
     inkscape:window-y="-8"
     inkscape:window-maximized="1"
     inkscape:current-layer="layer9"
     showguides="false"
     inkscape:pagecheckerboard="false"
     inkscape:snap-tangential="true"
     inkscape:snap-perpendicular="true"
     inkscape:snap-path-clip="true"
     inkscape:snap-path-mask="true"
     inkscape:guide-bbox="true">
    <inkscape:grid
       type="xygrid"
       id="grid40"
       spacingy="0.1"
       spacingx="0.1"
       dotted="true" />
    <sodipodi:guide
       position="125,303"
       orientation="1,0"
       id="guide4631"
       inkscape:locked="false" />
  </sodipodi:namedview>
  <g
     inkscape:groupmode="layer"
     id="layer3"
     inkscape:label="Espiral fondo azul"
     style="display:inline"
     sodipodi:insensitive="true">
    <path
       sodipodi:nodetypes="csssssssscscsssc"
       inkscape:original-d="m 104,149 c 5,-8 13.27394,-13.1183 20.60627,-19.78397 C 131.9386,122.55036 142.001,144.66567 150,152 c 7.999,7.33433 -15.999,23.999 -24,36 -8.001,12.001 -31.999,-24.001 -48,-36 -16.001,-11.999 30.66767,-36.001 46,-54 15.33233,-17.999 44.001,35.999 66,54 21.999,18.001 -42.66567,55.999 -64,84 C 104.66567,264.001 53.374774,185.02963 16.707107,156.36396 -19.96056,127.69829 93.515186,65.087246 128,20 -25440.549,-192034.65 96106.662,94130.402 272,100.24264 200.93584,30.51657 288,148 288,148 c 0,0 -30.72692,-14.74854 -36.72792,-19.41421 -6.001,-4.66567 6.02301,-4.80981 -8.64466,-0.14214 -14.66767,4.66767 -35.68708,26.65645 -41.68808,31.32412 C 194.93834,164.43544 194.001,159.33233 190,160"
       inkscape:path-effect="#path-effect4562"
       inkscape:connector-curvature="0"
       id="path4560"
       d="m 104,149 c 0.45038,-5.17783 2.83632,-10.16464 6.58546,-13.76418 3.74915,-3.59953 8.82894,-5.78052 14.02081,-6.01979 6.22309,-0.28679 12.45597,2.21742 17.00915,6.46918 4.55319,4.25177 7.44428,10.15647 8.38458,16.31479 1.19045,7.79663 -0.72892,16.0011 -5.14179,22.538 C 140.44533,181.07491 133.60284,185.90206 126,188 115.03026,191.027 102.7599,188.22905 93.784947,181.23276 84.809993,174.23647 79.166655,163.31975 78,152 76.654787,138.94774 81.177683,125.48416 89.799528,115.59301 98.421372,105.70186 110.95637,99.42651 124,98 c 15.61523,-1.707753 31.7563,3.51279 43.79096,13.60828 C 179.82561,121.70378 187.71255,136.4591 190,152 c 2.83423,19.25569 -2.92381,39.48203 -14.9119,54.815 C 163.10001,222.14798 145.15102,232.52827 126,236 101.45992,240.44867 75.328275,233.54535 55.419115,218.52431 35.509955,203.50326 21.855283,180.76688 16.707107,156.36396 9.7662374,123.46347 18.475175,87.611152 39.735796,61.561129 60.996416,35.511106 94.375974,19.793612 128,20 c 28.97636,-1.868552 58.45084,4.784267 83.81518,18.918307 25.36434,14.13404 46.52896,35.699378 60.18482,61.324333 7.93228,14.88477 13.36419,31.09813 16,47.75736 -9.48334,-10.47877 -22.72804,-17.47986 -36.72792,-19.41421 -2.86511,-0.39587 -5.78654,-0.5857 -8.64466,-0.14214 -4.37648,0.67921 -8.42401,2.8251 -11.90489,5.56343 -3.48087,2.73833 -6.4495,6.06357 -9.34649,9.41355 -2.897,3.34997 -5.75502,6.75667 -9.06233,9.70228 -3.30731,2.94561 -7.1132,5.43765 -11.37437,6.64486 -3.54743,1.005 -7.35245,1.08578 -10.93934,0.23223"
       style="fill:#58d1ec;fill-opacity:1;stroke:none;stroke-width:3;stroke-linecap:butt;stroke-linejoin:miter;stroke-miterlimit:4;stroke-dasharray:none;stroke-opacity:1" />
    <flowRoot
       xml:space="preserve"
       id="flowRoot4681"
       style="font-style:normal;font-weight:normal;font-size:40px;line-height:1.25;font-family:sans-serif;letter-spacing:0px;word-spacing:0px;fill:#000000;fill-opacity:1;stroke:none"><flowRegion
         id="flowRegion4683"><rect
           id="rect4685"
           width="232"
           height="64"
           x="-96"
           y="236" /></flowRegion><flowPara
         id="flowPara4687" /></flowRoot>    <text
       xml:space="preserve"
       style="font-style:normal;font-weight:normal;font-size:40px;line-height:1.25;font-family:sans-serif;letter-spacing:0px;word-spacing:0px;fill:#000000;fill-opacity:1;stroke:none"
       x="-104"
       y="228"
       id="text4691"><tspan
         sodipodi:role="line"
         id="tspan4689"
         x="-104"
         y="264.49323"
         style="font-style:normal;font-variant:normal;font-weight:normal;font-stretch:normal;font-family:Lithos-Bold;-inkscape-font-specification:Lithos-Bold" /></text>
  </g>
  <g
     inkscape:groupmode="layer"
     id="layer6"
     inkscape:label="Circulos concentricos gris"
     style="display:inline"
     sodipodi:insensitive="true">
    <path
       style="fill:none;stroke:#6e6e6e;stroke-width:2;stroke-linecap:butt;stroke-linejoin:miter;stroke-miterlimit:4;stroke-dasharray:none;stroke-opacity:1"
       d="m 126,143 c 2.35562,0.0642 4.69209,1.00311 6.37828,2.64927 1.68618,1.64616 2.68699,3.99514 2.62172,6.35073 -0.0654,2.3589 -1.19768,4.65161 -2.97549,6.20341 -1.7778,1.55181 -4.16557,2.36066 -6.52451,2.29659 -2.27341,-0.0617 -4.53022,-0.93186 -6.20211,-2.47361 C 117.626,156.48465 116.569,154.2732 116.5,152 c -0.0741,-2.44109 1.00036,-4.87549 2.79391,-6.53309 C 121.08746,143.80932 123.55869,142.93345 126,143 Z"
       id="path4640"
       inkscape:connector-curvature="0"
       inkscape:path-effect="#path-effect4642"
       inkscape:original-d="m 126,143 c 3.16567,-2.999 6.001,5.999 9,9 2.999,3.001 -6.33233,5.66567 -9.5,8.5 -3.16767,2.83433 -5.999,-5.66767 -9,-8.5 -3.001,-2.83233 6.33433,-6.001 9.5,-9 z" />
    <path
       style="fill:none;stroke:#6e6e6e;stroke-width:2;stroke-linecap:butt;stroke-linejoin:miter;stroke-miterlimit:4;stroke-dasharray:none;stroke-opacity:1"
       d="m 162,152 c -0.002,9.36192 -3.9062,18.6453 -10.52769,25.26355 -6.6215,6.61826 -15.86638,10.51146 -25.22593,10.72196 -9.63598,0.21672 -19.3217,-3.48142 -26.291079,-10.13926 -6.96938,-6.65784 -11.11377,-16.20783 -11.11464,-25.84625 -8.66e-4,-9.59863 4.1062,-19.11119 11.023465,-25.76591 C 106.78139,119.57938 116.40255,115.84897 126,116 c 9.40377,0.14798 18.71626,4.01474 25.38972,10.64179 6.67346,6.62704 10.612,15.95328 10.61028,25.35821 z"
       id="path4645"
       inkscape:connector-curvature="0"
       inkscape:path-effect="#path-effect4647"
       inkscape:original-d="m 162,152 c 11.999,12.001 5.3131,56.47694 -35.75362,35.98551 C 32.600614,141.25826 104.84166,163.66567 88.840661,152 72.839661,140.33433 110.001,127.999 126,116 c 15.999,-11.999 24.001,23.999 36,36 z"
       sodipodi:nodetypes="sssss" />
    <path
       style="fill:none;stroke:#6e6e6e;stroke-width:2;stroke-linecap:butt;stroke-linejoin:miter;stroke-miterlimit:4;stroke-dasharray:none;stroke-opacity:1"
       d="m 196,160 c 1.97318,-13.93433 -0.30453,-28.44184 -6.45296,-41.10105 -5.79221,-11.92579 -14.99142,-22.176301 -26.23426,-29.202876 -11.24284,-7.026576 -24.49396,-10.804045 -37.7518,-10.74137 -18.50664,0.08749 -36.830345,7.803896 -49.953314,20.853462 -13.122969,13.049564 -20.92895,31.255314 -21.517074,49.752814 -0.59146,18.60242 6.123338,37.37079 18.510983,51.2613 12.387646,13.89051 30.338285,22.71741 48.914105,23.87458 C 141.50271,225.94194 161.88048,218.20107 176,204"
       id="path4650"
       inkscape:connector-curvature="0"
       inkscape:path-effect="#path-effect4652"
       inkscape:original-d="m 196,160 c 1.33433,-2.66767 -6.45296,-38.12096 -6.45296,-41.10105 0,-12 -39.98506,-15.94525 -63.98606,-39.944246 -24.001,-23.999 -46.136055,46.605276 -71.470388,70.606276 -25.334333,24.001 43.092757,51.13488 67.425088,75.13588 C 145.84801,248.69786 159.001,210.66567 176,204"
       sodipodi:nodetypes="cssssc" />
    <path
       style="fill:none;stroke:#6e6e6e;stroke-width:2;stroke-linecap:butt;stroke-linejoin:miter;stroke-miterlimit:4;stroke-dasharray:none;stroke-opacity:1"
       d="M 16,152 C 16.436526,123.68094 28.354447,95.704024 48.473499,75.76955 68.592551,55.835076 96.678123,44.175508 125,44 150.02103,43.844947 175.00766,52.570258 194.49326,68.266991 213.97886,83.963724 227.82414,106.51967 233,131"
       id="path4655"
       inkscape:connector-curvature="0"
       inkscape:path-effect="#path-effect4657"
       inkscape:original-d="M 16,152 C 52.334333,115.999 88.667667,79.999 125,44 c 36.33233,-35.999 72.001,57.999 108,87" />
    <path
       style="fill:none;stroke:#6e6e6e;stroke-width:2;stroke-linecap:butt;stroke-linejoin:miter;stroke-miterlimit:4;stroke-dasharray:none;stroke-opacity:1"
       d="m 228,48 c 10.43213,11.404908 19.19083,24.338006 25.90941,38.25784 C 260.87084,100.6808 265.63907,116.15989 268,132"
       id="path4659"
       inkscape:connector-curvature="0"
       inkscape:path-effect="#path-effect4661"
       inkscape:original-d="m 228,48 c 9.33433,13.332333 16.57708,24.923507 25.90941,38.25784 C 263.24174,99.59217 264.001,118.66567 268,132"
       sodipodi:nodetypes="csc" />
  </g>
  <g
     inkscape:groupmode="layer"
     id="layer8"
     inkscape:label="Lineas circular punteada negra"
     style="display:inline"
     sodipodi:insensitive="true">
    <path
       style="fill:none;stroke:#000000;stroke-width:4;stroke-linecap:butt;stroke-linejoin:miter;stroke-miterlimit:4;stroke-dasharray:8, 4;stroke-dashoffset:0;stroke-opacity:1"
       d="m 54,152 c 0.79383,18.37987 9.79537,36.25275 24.090592,47.83275 C 91.370752,210.59048 109.00491,215.80506 126,214"
       id="path4664"
       inkscape:connector-curvature="0"
       inkscape:path-effect="#path-effect4666"
       inkscape:original-d="m 54,152 c 8.001,14.66567 16.091592,33.16508 24.090592,47.83275 C 86.089592,214.50042 109.66767,207.33233 126,214"
       sodipodi:nodetypes="csc" />
  </g>
  <g
     inkscape:groupmode="layer"
     id="layer4"
     inkscape:label="Espiral blanco"
     style="display:inline;opacity:1"
     sodipodi:insensitive="true">
    <path
       style="fill:#916f6f;fill-opacity:1;stroke:#000000;stroke-width:4;stroke-linecap:butt;stroke-linejoin:miter;stroke-miterlimit:4;stroke-dasharray:none;stroke-opacity:1"
       d="m 288,150 v 0"
       id="path4885"
       inkscape:connector-curvature="0"
       inkscape:path-effect="#path-effect4887"
       inkscape:original-d="m 288,150 c -78.31766,-9.23085 2.8003,-55.387226 0,0"
       sodipodi:nodetypes="cc" />
    <path
       style="display:inline;opacity:1;fill:#ffffff;fill-opacity:1;stroke:#000000;stroke-width:4;stroke-linecap:butt;stroke-linejoin:miter;stroke-miterlimit:4;stroke-dasharray:none;stroke-opacity:1"
       d="M 287.66654,148.33284 C 288.33319,149.99917 288.66667,152 289,154 c -7.66667,5.33333 -15.32882,10.66353 -22.16556,11.66446 -6.83674,1.00093 -12.8332,-2.33044 -18.16757,-7.33138 -5.33438,-5.00095 -10.00035,-11.66662 -13.33359,-15.99983 C 232.00004,138.00004 230,136 230.16727,134.49974 c 0.16727,-1.50026 2.50061,-2.50026 5.33394,-3.66691 2.83333,-1.16664 6.16667,-2.49998 10.66646,-2.66633 4.4998,-0.16636 10.16646,0.83364 15.33247,2.66676 5.16601,1.83311 9.83351,4.50026 13.6667,6.8335 3.83318,2.33325 6.83339,4.33339 8.83321,5.9999 1.99983,1.66651 2.99983,2.99985 3.66649,4.66618 z"
       id="path4893"
       inkscape:connector-curvature="0"
       inkscape:path-effect="#path-effect4895"
       inkscape:original-d="m 288,148 c 0.33433,1.99898 1,6 1,6 0,0 -15.32896,10.66332 -23,16 -6.00164,-3.3358 -11.9981,-6.66716 -18,-10 -4.66637,-6.66867 -9.33234,-13.33434 -14,-20 -1.99896,-2.00096 -3.999,-4.001 -6,-6 2.33433,-1.001 4.66767,-2.001 7,-3 3.33433,-1.33433 6.66767,-2.66767 10,-4 5.66767,0.999 11.33433,1.999 17,3 4.66683,2.66519 9.33433,5.33233 14,8 3.00079,1.99886 6.001,3.999 9,6 1.001,1.33233 2.001,2.66567 3,4 z"
       sodipodi:nodetypes="cccccccccccc" />
  </g>
  <g
     inkscape:groupmode="layer"
     id="layer1"
     inkscape:label="Oceanus name"
     style="display:inline"
     sodipodi:insensitive="true">
    <flowRoot
       xml:space="preserve"
       id="flowRoot3726"
       style="font-style:normal;font-variant:normal;font-weight:normal;font-stretch:normal;font-size:40px;line-height:1.25;font-family:Lithos-Bold;-inkscape-font-specification:Lithos-Bold;letter-spacing:0px;word-spacing:0px;fill:#000000;fill-opacity:1;stroke:none"
       transform="translate(39.738813,78.917913)"><flowRegion
         id="flowRegion3728"
         style="font-style:normal;font-variant:normal;font-weight:normal;font-stretch:normal;font-family:Lithos-Bold;-inkscape-font-specification:Lithos-Bold"><rect
           id="rect3730"
           width="278.73135"
           height="117.53732"
           x="-53.731342"
           y="115.85821"
           style="font-style:normal;font-variant:normal;font-weight:normal;font-stretch:normal;font-family:Lithos-Bold;-inkscape-font-specification:Lithos-Bold" /></flowRegion><flowPara
         id="flowPara3732"
         style="font-style:normal;font-variant:normal;font-weight:normal;font-stretch:normal;font-family:Lithos-Bold;-inkscape-font-specification:Lithos-Bold" /></flowRoot>    <path
       style="display:inline;fill:#000000;fill-opacity:1;stroke-width:0.50321513"
       d="m 34,281.17112 c -3.105183,-0.87528 -7.451151,-3.88103 -9.144497,-6.32454 -5.773686,-8.33143 -3.671181,-20.33586 4.631845,-26.44585 4.043079,-2.9752 7.198623,-3.93325 12.954958,-3.93325 3.981762,0 5.631025,0.23127 7.901299,1.10801 3.994847,1.54275 7.453356,4.79869 9.243962,8.70255 1.27729,2.78468 1.454788,3.75223 1.458782,7.95104 0.0025,4.14458 -0.176131,5.16755 -1.35348,7.68975 -1.917255,4.10723 -6.227716,8.46121 -10.099076,10.2009 -2.613596,1.17451 -3.950305,1.43124 -8.157921,1.56682 -3.176399,0.10239 -5.918597,-0.0877 -7.435872,-0.51543 z m 12.4373,-8.24414 c 3.049915,-2.14355 4.546413,-5.49927 4.546413,-10.19467 0,-6.97439 -3.344386,-11.04389 -9.091278,-11.06247 -3.820761,-0.0124 -6.636598,1.65018 -8.444728,4.98596 -3.624153,6.68604 -1.345229,15.87286 4.372691,17.62714 2.62442,0.8052 6.383643,0.21362 8.616902,-1.35596 z m 33.193498,8.17984 c -5.974753,-1.29988 -11.335179,-5.11707 -13.317785,-9.4837 -2.92935,-6.45176 0.376966,-14.95753 8.004529,-20.59236 4.876229,-3.60228 14.932201,-7.36187 16.227268,-6.06683 0.632724,0.63273 1.954711,6.14513 1.658722,6.91651 -0.117908,0.30741 -1.65747,0.93741 -3.421139,1.39998 -6.210959,1.62901 -10.922582,4.67799 -12.559457,8.12746 -1.118737,2.35759 -1.053024,6.21992 0.139038,8.17492 1.764082,2.89299 8.746736,5.16767 13.803965,4.49679 1.573381,-0.20871 2.689645,-0.11474 3.147026,0.26481 0.885974,0.73531 0.96667,6.04452 0.104951,6.9062 -0.816609,0.81661 -9.803706,0.72287 -13.787196,-0.14385 z m 31.248752,0.27386 -8.55466,-0.28104 -0.13234,-17.58073 c -0.074,-9.8303 0.0655,-17.7786 0.31636,-18.02957 0.59803,-0.59801 18.31134,-1.4109 18.87756,-0.86628 0.24334,0.23407 0.46981,1.74368 0.5032,3.35465 l 0.0605,2.92904 -1.76123,0.12285 c -0.96871,0.0677 -3.40299,0.25672 -5.40957,0.42036 l -3.64834,0.29751 v 3.98277 3.98279 h 4.25963 c 4.95833,0 5.45952,0.42584 5.20255,4.42028 l -0.15268,2.37313 h -4.52895 -4.52893 v 3.77411 3.77412 l 5.53539,0.25162 5.53535,0.2516 v 3.52248 3.52252 l -1.50965,0.0294 c -0.8303,0.0159 -5.35925,-0.0971 -10.0643,-0.25159 z m 19.24798,-1.168 c -2.02728,-1.1338 -2.89347,-1.92126 -2.89347,-2.63051 0,-0.94415 6.43816,-12.80703 14.88683,-27.43026 1.99879,-3.45959 3.96323,-6.35709 4.36541,-6.4389 0.46776,-0.0949 2.27612,2.35217 5.01972,6.7934 10.40499,16.84311 16.03805,26.45893 15.82507,27.01388 -0.36214,0.94375 -6.30336,4.42304 -7.24357,4.24196 -0.46579,-0.0896 -1.7875,-1.92888 -2.93709,-4.08711 -1.14959,-2.15823 -2.3315,-4.16534 -2.62643,-4.46029 -0.36565,-0.36565 -2.97006,-0.41838 -8.18685,-0.16573 l -7.65057,0.37053 -1.97637,4.21741 c -1.3514,2.88379 -2.24718,4.21368 -2.83275,4.20564 -0.47106,-0.006 -2.15852,-0.74 -3.74993,-1.63002 z m 20.49274,-13.93639 c 0.33547,-0.54279 -3.55893,-8.57616 -4.15751,-8.57616 -0.33709,0 -4.63549,8.17277 -4.63549,8.81367 0,0.46942 8.49797,0.23987 8.793,-0.23751 z m 77.25681,14.59428 c -2.07349,-0.7125 -3.41758,-1.64719 -5.35881,-3.72659 -4.12672,-4.42052 -4.45389,-5.8858 -4.45389,-19.94705 v -11.82555 l 4.40312,-0.14538 c 2.42174,-0.0801 4.40732,0.0333 4.41243,0.25163 0.002,0.21835 0.0878,5.03913 0.18403,10.71291 0.10116,5.97344 0.42317,11.10365 0.76487,12.18733 2.16097,6.85293 10.16753,7.87926 13.51525,1.73243 0.72584,-1.33274 0.90802,-3.51067 1.12218,-13.41654 l 0.25568,-11.82556 h 4.52892 4.52893 l -0.0227,10.81913 c -0.0207,9.82526 -0.12918,11.16579 -1.18112,14.59323 -1.011,3.29408 -1.5521,4.16757 -4.25452,6.8676 -2.43216,2.43006 -3.68236,3.26644 -5.8294,3.89994 -3.6793,1.08555 -9.16376,1.00839 -12.61486,-0.17749 z m 33.78277,0.10317 c -0.25917,-0.48433 -0.6295,-1.93611 -0.82297,-3.2262 -0.40046,-2.67081 -0.0124,-3.07251 3.53304,-3.6592 1.1124,-0.18404 2.92398,-0.84028 4.02569,-1.45826 1.63126,-0.91502 2.00313,-1.40022 2.00313,-2.61338 0,-1.31588 -0.52747,-1.8426 -4.51954,-4.51294 -2.48576,-1.66273 -5.03327,-3.7926 -5.66118,-4.73302 -3.87894,-5.80973 2.35426,-13.39246 13.06239,-15.89048 3.93204,-0.91727 4.4165,-0.54615 4.56155,3.49435 l 0.10506,2.92584 -3.10313,0.64357 c -3.6383,0.75454 -4.98608,1.39692 -5.68982,2.71181 -0.83432,1.559 -0.12782,2.40465 4.11865,4.9284 5.40802,3.21426 7.44549,5.49203 7.43094,8.30737 -0.0299,5.78887 -5.57661,10.95014 -14.24942,13.25931 -3.41635,0.9096 -4.22886,0.87958 -4.79436,-0.17717 z m -88.96752,-0.41144 c -0.17548,-0.4573 -0.18005,-3.69376 -0.0111,-7.19213 1.06496,-21.92516 1.49537,-28.5537 1.88039,-28.95874 0.51431,-0.54102 2.92442,1.39174 15.68446,12.57811 5.18132,4.54233 9.65367,8.25875 9.9385,8.25875 0.33781,0 0.5179,-3.50494 0.5179,-10.08008 0,-11.60277 -0.3126,-10.95646 4.95632,-10.2473 l 3.34673,0.45042 -0.0152,2.51606 c -0.0263,4.36929 -1.29999,31.14784 -1.5378,32.33158 -0.1386,0.6897 -0.59547,1.13222 -1.16902,1.13222 -0.83957,0 -11.32885,-8.75492 -20.90931,-17.45206 -1.92648,-1.74887 -3.67678,-3.17974 -3.88949,-3.17974 -0.21274,0 -0.44813,4.58554 -0.52303,10.1901 l -0.13621,10.1901 -3.90754,0.14703 c -3.25687,0.12259 -3.96068,0.008 -4.22662,-0.68438 z"
       id="path4833"
       inkscape:connector-curvature="0"
       sodipodi:nodetypes="sssscccsccscsccccsssscsssssssccsscccsccccssccccccccccccssscscscsscscscssccsscccsccscccccscccscccssssscscsccscscssscccsscssccc" />
  </g>
  <ellipse
     style="opacity:0.49599998;fill:none;fill-opacity:0.30588235;stroke-width:3;stroke-miterlimit:4;stroke-dasharray:none"
     id="path4614"
     cx="123"
     cy="153"
     rx="3"
     ry="5" />
  <g
     inkscape:groupmode="layer"
     id="layer5"
     inkscape:label="Diagonales negras"
     style="display:inline"
     sodipodi:insensitive="true">
    <path
       style="fill:none;stroke:#000000;stroke-width:2;stroke-linecap:butt;stroke-linejoin:miter;stroke-miterlimit:4;stroke-dasharray:none;stroke-opacity:1"
       d="M 266,132 126,20 233,131"
       id="path4617"
       inkscape:connector-curvature="0"
       sodipodi:nodetypes="ccc" />
    <path
       style="fill:none;stroke:#000000;stroke-width:2;stroke-linecap:butt;stroke-linejoin:miter;stroke-miterlimit:4;stroke-dasharray:none;stroke-opacity:1"
       d="M 126,20 16,152"
       id="path4619"
       inkscape:connector-curvature="0"
       sodipodi:nodetypes="cc" />
  </g>
  <path
     style="fill:none;stroke:#6e6e6e;stroke-width:0;stroke-linecap:butt;stroke-linejoin:miter;stroke-opacity:1;stroke-miterlimit:4;stroke-dasharray:none"
     d="M 212,152 H 20"
     id="path4871"
     inkscape:connector-curvature="0"
     inkscape:path-effect="#path-effect4873"
     inkscape:original-d="M 212,152 C 148.001,151.999 84.001,151.999 20,152" />
  <g
     inkscape:groupmode="layer"
     id="layer11"
     inkscape:label="Lineas rectas grises"
     style="display:inline"
     sodipodi:insensitive="true">
    <path
       style="fill:none;stroke:#6e6e6e;stroke-width:2;stroke-linecap:butt;stroke-linejoin:miter;stroke-miterlimit:4;stroke-dasharray:none;stroke-opacity:1"
       d="M 125,236 125.73914,21.724651"
       id="path4875"
       inkscape:connector-curvature="0"
       inkscape:path-effect="#path-effect4877"
       inkscape:original-d="m 125,236 c 0.001,-62.66767 0.74014,-151.609679 0.73914,-214.275349"
       sodipodi:nodetypes="cc" />
    <path
       style="fill:none;stroke:#6e6e6e;stroke-width:2;stroke-linecap:butt;stroke-linejoin:miter;stroke-miterlimit:4;stroke-dasharray:none;stroke-opacity:1"
       d="M 227.39024,50.874564 58.5,219"
       id="path4881"
       inkscape:connector-curvature="0"
       inkscape:path-effect="#path-effect4883"
       inkscape:original-d="M 227.39024,50.874564 C 171.05791,107.70689 114.83433,162.16567 58.5,219"
       sodipodi:nodetypes="cc" />
  </g>
  <g
     inkscape:groupmode="layer"
     id="layer10"
     inkscape:label="Linea vertical negra"
     style="display:inline"
     sodipodi:insensitive="true">
    <path
       style="fill:none;stroke:#000000;stroke-width:4;stroke-linecap:butt;stroke-linejoin:miter;stroke-miterlimit:4;stroke-dasharray:none;stroke-opacity:1"
       d="M 125,151.5 V 236"
       id="path4863"
       inkscape:connector-curvature="0"
       inkscape:path-effect="#path-effect4865"
       inkscape:original-d="m 125,151.5 c 1.001,27.999 -0.999,56.499 0,84.5"
       sodipodi:nodetypes="cc" />
  </g>
  <g
     style="display:inline"
     inkscape:label="Espiral linea negra"
     id="g4678"
     inkscape:groupmode="layer"
     sodipodi:insensitive="true">
    <path
       style="fill:none;fill-opacity:0.30588235;stroke:#000000;stroke-width:4;stroke-linecap:butt;stroke-linejoin:miter;stroke-miterlimit:4;stroke-dasharray:none;stroke-opacity:1"
       d="m 104,151.5 c 0.0992,-5.68444 2.51856,-11.29442 6.58461,-15.26807 4.06606,-3.97364 9.73017,-6.26346 15.41539,-6.23193 5.89485,0.0327 11.68583,2.53237 15.96292,6.58907 4.27709,4.0567 7.05152,9.59896 8.03708,15.41093 1.32238,7.79822 -0.5786,16.05968 -5.01921,22.60505 C 140.54019,181.15043 133.63705,185.94175 126,188 115.02584,190.95763 102.79128,188.14994 93.821689,181.16953 84.852095,174.18912 79.187845,163.30348 78,152 76.628165,138.94567 81.148752,125.46951 89.776581,115.57719 98.40441,105.68486 110.95063,99.418258 124,98 c 15.61449,-1.697046 31.75058,3.52451 43.78475,13.61763 C 179.81892,121.71075 187.70927,136.46151 190,152 c 2.83875,19.25584 -2.91876,39.48428 -14.90784,54.81751 C 163.10309,222.15075 145.1521,232.52967 126,236 101.45994,240.44662 75.32929,233.54297 55.420293,218.52236 35.511296,203.50174 21.856047,180.76632 16.707107,156.36396 9.7650241,123.46336 18.473495,87.610253 39.734347,61.559947 60.995199,35.50964 94.375616,19.792447 128,20 c 28.97636,-1.868552 58.45084,4.784267 83.81518,18.918307 25.36434,14.13404 46.52896,35.699378 60.18482,61.324333 7.93228,14.88477 13.36419,31.09813 16,47.75736 -9.48334,-10.47877 -22.72804,-17.47986 -36.72792,-19.41421 -2.86511,-0.39587 -5.78654,-0.5857 -8.64466,-0.14214 -4.37648,0.67921 -8.42401,2.8251 -11.90489,5.56343 -3.48087,2.73833 -6.4495,6.06357 -9.34649,9.41355 -2.897,3.34997 -5.75502,6.75667 -9.06233,9.70228 -3.30731,2.94561 -7.1132,5.43765 -11.37437,6.64486 -3.54743,1.005 -7.35245,1.08578 -10.93934,0.23223"
       id="path4676"
       inkscape:connector-curvature="0"
       inkscape:path-effect="#path-effect4562"
       inkscape:original-d="m 104,151.5 c 7.33433,-6.66767 14.66767,-14.83433 22,-21.5 7.33233,-6.66567 16.001,14.66567 24,22 7.999,7.33433 -15.999,23.999 -24,36 -8.001,12.001 -31.999,-24.001 -48,-36 -16.001,-11.999 30.66767,-36.001 46,-54 15.33233,-17.999 44.001,35.999 66,54 21.999,18.001 -42.66567,55.999 -64,84 C 104.66567,264.001 53.374774,185.02963 16.707107,156.36396 -19.96056,127.69829 93.515186,65.087246 128,20 -25440.549,-192034.65 96106.662,94130.402 272,100.24264 200.93584,30.51657 288,148 288,148 c 0,0 -30.72692,-14.74854 -36.72792,-19.41421 -6.001,-4.66567 6.02301,-4.80981 -8.64466,-0.14214 -14.66767,4.66767 -35.68708,26.65645 -41.68808,31.32412 C 194.93834,164.43544 194.001,159.33233 190,160"
       sodipodi:nodetypes="csssssssscscsssc" />
  </g>
  <g
     inkscape:groupmode="layer"
     id="layer9"
     inkscape:label="Flechas rojas"
     style="display:inline">
    <path
       style="fill:#ff0000;fill-opacity:1;stroke:none;stroke-width:1px;stroke-linecap:butt;stroke-linejoin:miter;stroke-opacity:1"
       d="m 39,66 25,18 -2,2 65,65 v 1.1 l -1,1.9 -66,-66 -2,2"
       id="path4669"
       inkscape:connector-curvature="0"
       sodipodi:nodetypes="cccccccc" />
    <path
       style="display:inline;fill:#ff0000;fill-opacity:1;stroke:none;stroke-width:1px;stroke-linecap:butt;stroke-linejoin:miter;stroke-opacity:1"
       d="M 127,151.5 45.5,151 v -2 l -27.5,3.5 27.5,4 v -2 L 127,154"
       id="path4674"
       inkscape:connector-curvature="0"
       sodipodi:nodetypes="ccccccc" />
  </g>
</svg>
